HIERARCHY
ROOT Hips
{
  OFFSET 1.44925e-005 102.336 -0.101585
  CHANNELS 6 Xposition Yposition Zposition Zrotation Xrotation Yrotation
  JOINT RightUpLeg
  {
    OFFSET -8.9458 -8.66707 0.101652
    CHANNELS 3 Zrotation Xrotation Yrotation
    JOINT RightLeg
    {
      OFFSET 0 -44.4227 1.3727
      CHANNELS 3 Zrotation Xrotation Yrotation
      JOINT RightFoot
      {
        OFFSET 0.253549 -42.0924 -1.46059
        CHANNELS 3 Zrotation Xrotation Yrotation
        JOINT RightToes
        {
          OFFSET 0.04 -4.41509 8.4991
          CHANNELS 3 Zrotation Xrotation Yrotation
          End Site
          {
            OFFSET -0.08 -0.137448 9.77979
          }
        }
      }
    }
  }
  JOINT Spine
  {
    OFFSET 0 11.8905 0
    CHANNELS 3 Zrotation Xrotation Yrotation
    JOINT Spine1
    {
      OFFSET 0 25.6574 0.127663
      CHANNELS 3 Zrotation Xrotation Yrotation
      JOINT HEad
      {
        OFFSET 0 8.73416 0.011341
        CHANNELS 3 Zrotation Xrotation Yrotation
        End Site
        {
          OFFSET -0.29 12.7742 2.51395
        }
      }
      JOINT LeftShoulder1
      {
        OFFSET 8.99 -0.362252 -0.22
        CHANNELS 3 Zrotation Xrotation Yrotation
        JOINT LeftArm
        {
          OFFSET 10.2827 -0.00337999 0.322123
          CHANNELS 3 Zrotation Xrotation Yrotation
          JOINT LeftForeArm
          {
            OFFSET 26.2597 0.099144 -1.42434
            CHANNELS 3 Zrotation Xrotation Yrotation
            JOINT LeftHand
            {
              OFFSET 22.0902 0.085362 1.02216
              CHANNELS 3 Zrotation Xrotation Yrotation
              End Site
              {
                OFFSET 13.419 -0.6 1.50291
              }
            }
          }
        }
      }
      JOINT RightShoulder
      {
        OFFSET -8.99 -0.362252 -0.22
        CHANNELS 3 Zrotation Xrotation Yrotation
        JOINT RightArm
        {
          OFFSET -10.2827 -0.00338 0.322123
          CHANNELS 3 Zrotation Xrotation Yrotation
          JOINT RightForeArm
          {
            OFFSET -26.364 0.099144 -1.42434
            CHANNELS 3 Zrotation Xrotation Yrotation
            JOINT RightHand
            {
              OFFSET -22.0324 0.085362 1.02216
              CHANNELS 3 Zrotation Xrotation Yrotation
              End Site
              {
                OFFSET -13.3284 -0.6 1.50291
              }
            }
          }
        }
      }
    }
  }
  JOINT LeftUpLeg
  {
    OFFSET 8.9458 -8.66707 0.101652
    CHANNELS 3 Zrotation Xrotation Yrotation
    JOINT LeftLeg
    {
      OFFSET 0 -44.4227 1.3727
      CHANNELS 3 Zrotation Xrotation Yrotation
      JOINT LeftFoot
      {
        OFFSET -0.253549 -42.0924 -1.46059
        CHANNELS 3 Zrotation Xrotation Yrotation
        JOINT LeftToes
        {
          OFFSET -0.04 -4.41509 8.4991
          CHANNELS 3 Zrotation Xrotation Yrotation
          End Site
          {
            OFFSET 0.08 -0.047448 9.77979
          }
        }
      }
    }
  }
}
MOTION
Frames:	21
Frame Time:	0.0333333
-18.8648 87.8558 51.0453 5.84919 7.48958 145.239 -11.759 -8.48702 -8.46809 -2.31786 73.4917 -8.21151 26.8767 -39.7847 7.84909 0.0462048 0.000530889 0.662642 9.30592 26.8285 -7.1349 11.5702 5.83821 -8.36831 -9.44869 -4.67717 15.2766 -16.3888 1.40024 -2.54488 -21.0351 0.305812 -7.04833 -7.71485 10.4507 -21.1034 3.96358 9.61329 -5.0463 22.1825 1.57916 1.26769 -44.5555 -58.7416 -70.9169 20.8557 -3.29832 32.0885 -47.4331 14.3337 -15.9702 21.7688 -42.1784 16.8226 0.768496 48.2874 5.8627 -4.90075 4.58011 0.477101 -1.40479e-009 8.75242e-006 -1.47264e-008 
-18.891 85.7131 49.2227 5.87187 8.48556 146.889 -12.1093 -8.63932 -5.45468 -3.40818 78.7098 -7.29675 31.3392 -38.6393 8.91013 0.0462048 0.000530889 0.662642 8.85662 27.131 -6.63573 12.1418 6.10625 -8.18932 -9.31438 -4.45202 11.2125 -17.1806 1.42957 -2.48282 -21.8676 -2.57783 -8.6222 -7.21288 12.2974 -23.7952 3.76676 9.61639 -5.66788 23.1822 1.67649 1.44442 -44.3025 -61.0538 -70.9645 21.475 -4.74313 31.6685 -47.8 14.3561 -15.9285 21.2616 -44.9617 16.7632 0.813972 54.2136 4.70489 -5.23532 5.43811 0.548522 -1.40479e-009 8.75242e-006 -1.47264e-008 
-18.8887 83.8347 47.6795 5.84777 9.96512 148.335 -12.1618 -8.36776 -1.86646 -5.74105 83.3293 -4.97385 34.2566 -37.006 9.25263 0.0462048 0.000530889 0.662642 7.85921 27.7201 -5.7871 12.7402 6.97227 -7.82882 -9.2304 -4.14705 6.89401 -18.0881 1.49011 -2.524 -22.9358 -4.98384 -11.2755 -5.9838 15.6762 -26.7735 3.17944 9.66032 -6.28102 24.5721 1.81786 1.69061 -42.1418 -64.1884 -69.405 22.2119 -5.45733 32.0257 -47.8075 14.2022 -15.5636 20.2263 -46.8157 16.6396 0.894598 59.6214 3.93566 -4.90569 4.02443 0.460618 -1.40479e-009 8.75242e-006 -1.47264e-008 
-18.9093 82.2155 46.4663 5.76494 11.3319 149.947 -11.8278 -8.04601 1.76615 -13.3745 87.2364 3.34707 35.9374 -34.9843 9.0217 0.0462048 0.000530889 0.662642 7.20142 28.463 -4.9957 13.0336 7.47942 -7.34617 -9.14707 -3.05357 2.47141 -18.939 1.59076 -2.73172 -24.5304 -6.39773 -14.5711 -4.4884 18.6352 -29.4992 2.96542 9.67604 -6.61883 25.9524 2.02146 2.10944 -36.228 -67.633 -64.2845 22.6942 -5.56762 32.5385 -48.006 13.9508 -14.9266 18.5866 -48.3613 15.7611 1.01343 64.1424 3.54074 -4.28912 2.06656 0.336119 -1.40479e-009 8.75242e-006 -1.47264e-008 
-18.9523 80.699 45.5469 5.54946 12.2177 152.102 -11.3754 -7.68153 4.66009 -127.826 89.2601 119.549 37.1417 -33.2845 8.72716 0.0462048 0.000530889 0.662642 7.20509 28.9949 -4.52622 13.2141 7.23847 -6.95262 -8.89098 -1.28753 -2.16708 -19.7261 1.71143 -3.01695 -26.5126 -7.01402 -18.1383 -3.7403 19.9817 -31.4885 3.53851 9.6143 -6.72991 27.3693 2.34945 2.8562 -26.0089 -71.1413 -54.2533 22.7421 -5.70416 32.488 -47.5484 13.5051 -13.9693 16.1267 -50.3683 13.4933 1.16997 67.872 3.37972 -3.68285 0.672782 0.248037 -1.40479e-009 8.75242e-006 -1.47264e-008 
-18.9736 79.2913 44.9528 5.16459 12.9288 154.826 -11.1977 -6.79136 6.17765 -168.752 87.3297 162.515 38.3031 -32.7217 8.81672 0.0462048 0.000530889 0.662642 7.36312 29.2389 -4.21734 13.6898 6.85989 -6.74375 -8.27924 0.360507 -7.31223 -20.6301 1.83982 -3.2866 -28.4255 -6.92835 -22.1494 -3.93768 19.8833 -32.7718 4.52425 9.50711 -6.85982 29.1409 2.83949 3.93082 -10.6241 -74.2667 -37.5678 22.8295 -6.85642 31.7026 -44.7177 12.6945 -12.5087 12.5409 -52.4642 9.76683 1.33567 70.7426 3.25188 -3.34952 -0.197931 0.203765 -1.40479e-009 8.75242e-006 -1.47264e-008 
-18.9817 78.0683 44.7444 4.75922 13.8101 157.549 -11.3325 -5.37894 6.30307 -173.317 85.8815 168.307 39.3601 -33.2673 9.30142 0.0462048 0.000530889 0.662642 7.54297 29.4828 -3.74825 14.2417 6.85378 -6.37833 -7.3111 1.36785 -12.9843 -21.5839 1.99781 -3.63246 -30.1691 -6.24154 -26.7909 -4.33855 19.5031 -33.7062 5.25408 9.42276 -7.05488 31.1514 3.43589 5.13382 11.0165 -75.3687 -13.1032 23.4807 -9.48721 30.6184 -39.7823 11.6625 -10.5242 8.65764 -53.8549 5.82315 1.46614 72.7431 2.97413 -3.29148 -0.861978 0.185159 -1.40479e-009 8.75242e-006 -1.47264e-008 
-19.0227 77.0157 44.9338 4.50428 14.7437 159.604 -11.5842 -4.25862 5.60494 -175.112 84.4679 170.335 40.0124 -34.1139 9.81275 0.0462048 0.000530889 0.662642 8.25662 29.986 -3.07759 14.0932 6.99412 -5.43084 -6.23159 1.83203 -18.6127 -22.1898 2.20332 -4.20843 -32.0239 -5.16756 -31.574 -4.42264 19.5239 -34.596 5.57296 9.38072 -7.24777 32.7336 4.02028 6.28421 31.287 -72.9508 10.7364 24.6357 -13.114 29.6983 -35.1233 10.8493 -8.60029 5.98733 -54.5963 3.3157 1.53146 74.0579 2.48552 -3.2426 -1.23859 0.173941 -1.40479e-009 8.75242e-006 -1.47264e-008 
-19.0845 76.0442 45.4673 4.39765 15.4859 160.873 -11.9304 -4.0713 4.68133 -176.31 82.6925 171.542 40.1724 -34.6214 10.062 0.0462048 0.000530889 0.662642 9.6678 30.7183 -2.42139 13.0421 6.90845 -3.98918 -5.39097 1.996 -23.3207 -22.2758 2.42028 -4.94173 -33.968 -3.98609 -35.6713 -4.37441 19.729 -35.7119 5.87991 9.33462 -7.53928 33.3348 4.49692 7.33747 44.0048 -68.0797 27.1309 25.7161 -16.7124 28.9604 -31.0927 10.3263 -7.05933 4.92862 -55.271 2.55651 1.53246 74.9031 1.84962 -3.11204 -1.07155 0.17007 -1.40479e-009 8.75242e-006 -1.47264e-008 
-19.089 75.1114 46.2717 4.32435 16.1094 161.818 -12.4899 -4.49757 3.71532 -177.226 80.7113 173.054 40.1364 -34.7949 10.1223 0.0462048 0.000530889 0.662642 11.2036 31.5023 -1.93864 11.8282 6.67669 -2.6059 -5.007 1.8727 -26.5858 -22.1325 2.58105 -5.54251 -35.5403 -2.90273 -38.7232 -4.34728 19.9612 -37.3406 6.39771 9.25808 -7.93437 32.926 4.79487 8.20876 52.0312 -62.1541 38.8069 25.9865 -18.8837 28.2219 -26.3981 9.8773 -5.33909 4.56369 -56.0034 2.47663 1.49121 75.3638 1.2409 -3.04093 -0.353515 0.180747 -1.40479e-009 8.75242e-006 -1.47264e-008 
-18.9745 74.2802 47.2849 4.26441 16.8294 162.947 -13.2027 -4.76901 2.54089 -177.882 78.9651 175.004 40.1484 -34.9671 10.1954 0.0462048 0.000530889 0.662642 12.4045 32.1614 -1.65613 11.12 6.60916 -1.6765 -4.97611 1.41238 -28.508 -22.0337 2.6558 -5.83387 -36.5009 -2.05611 -40.8799 -4.01181 20.5548 -39.6245 6.88523 9.1845 -8.27247 31.815 4.85742 8.71238 57.6619 -55.8104 47.8091 25.1189 -18.342 27.5536 -22.786 9.50972 -3.44625 3.90099 -56.5006 1.91251 1.42899 75.3946 0.835293 -3.0158 0.659501 0.199458 -1.40479e-009 8.75242e-006 -1.47264e-008 
-18.7259 73.6533 48.4562 4.25161 17.6192 164.422 -13.7671 -4.62904 1.00411 -178.315 77.7038 176.842 40.124 -35.2995 10.3233 0.0462048 0.000530889 0.662642 13.3809 32.5248 -1.56825 10.7851 6.79411 -1.1486 -4.94507 0.662234 -29.4465 -21.9082 2.67387 -5.93641 -37.0713 -1.65382 -42.2449 -3.25077 21.5009 -42.4412 7.17462 9.13253 -8.59878 30.3331 4.71963 8.82715 62.5446 -49.9505 54.8993 23.428 -15.2629 27.1859 -22.6932 9.41878 -2.9222 2.76148 -56.6535 0.583874 1.33323 74.8642 0.573409 -2.91751 1.87949 0.215689 -1.40479e-009 8.75242e-006 -1.47264e-008 
-18.338 73.286 49.7611 4.25718 18.2853 166.117 -13.9432 -4.39685 -0.863275 -178.562 76.8834 178.027 39.9221 -35.7387 10.443 0.0462048 0.000530889 0.662642 14.3096 32.5156 -1.63187 10.3377 7.0854 -0.800942 -4.64581 -0.412983 -29.6185 -21.6398 2.68019 -6.0437 -37.415 -1.93739 -42.7461 -2.66388 22.1632 -45.5115 7.52098 9.06439 -9.05231 28.7756 4.51901 8.79591 67.9252 -45.4464 60.5037 21.4642 -10.9653 27.2601 -24.6205 9.75147 -4.72838 1.50392 -56.5839 -1.11793 1.17605 73.6351 0.20766 -2.9098 3.55824 0.247674 -1.40479e-009 8.75242e-006 -1.47264e-008 
-17.8159 73.227 51.2176 4.25024 18.7683 167.829 -13.7484 -4.30864 -2.95892 -178.662 76.4994 178.529 39.5153 -36.2685 10.537 0.0462048 0.000530889 0.662642 15.0934 32.2408 -1.73007 9.60946 7.37801 -0.508405 -4.17197 -1.98606 -29.1333 -21.3615 2.68198 -6.13955 -37.4291 -2.93518 -42.5452 -2.71125 22.249 -48.6238 8.13914 8.96547 -9.3969 27.5222 4.37786 8.82398 72.6989 -42.3945 64.1596 19.9295 -6.6476 28.1551 -26.132 10.3581 -7.55623 0.375776 -56.2218 -2.92134 0.987123 71.5983 -0.164345 -3.33225 5.73362 0.3393 -1.40479e-009 8.75242e-006 -1.47264e-008 
-17.198 73.6185 52.8562 4.24458 19.1231 169.442 -13.3171 -4.27119 -5.29285 -178.626 76.8334 178.477 38.7954 -36.9191 10.5805 0.0462048 0.000530889 0.662642 15.627 31.8222 -1.738 8.75569 7.71038 -0.203825 -3.88096 -4.12836 -28.1859 -21.2453 2.65782 -6.09073 -37.2136 -4.38265 -42.1533 -2.90024 22.2383 -51.7161 8.78708 8.88817 -9.30996 26.8699 4.31895 8.88138 74.2043 -40.3861 65.0333 18.7556 -2.2135 30.1262 -26.9829 10.9561 -10.1137 -0.538066 -55.2537 -4.81436 0.84855 68.5618 0.079607 -4.30231 7.92098 0.52061 -1.40479e-009 8.75242e-006 -1.47264e-008 
-16.5228 74.6262 54.6847 4.21754 19.284 170.991 -12.7339 -4.23074 -8.01284 -178.385 78.2092 177.702 37.5138 -37.6148 10.46 0.0462048 0.000530889 0.662642 15.9653 31.1851 -1.60239 7.9 8.15007 0.177737 -3.97166 -6.7145 -27.0297 -21.2292 2.60934 -5.92155 -37.2479 -6.03235 -41.9697 -2.55775 22.553 -54.7528 9.14125 8.86899 -8.9406 26.7081 4.29496 8.86771 71.5735 -38.9199 63.1632 17.1925 2.63857 32.7787 -28.1773 11.4734 -12.0724 -1.08516 -53.5623 -6.60267 0.79311 64.2507 1.20978 -5.68253 9.72092 0.785595 -1.40479e-009 8.75242e-006 -1.47264e-008 
-15.7845 76.2652 56.6979 4.11163 19.0855 172.61 -11.9941 -4.31117 -11.2239 -177.72 80.6994 175.852 35.5269 -38.2744 10.0899 0.0462048 0.000530889 0.662642 16.185 30.2022 -1.38049 6.99991 8.67006 0.598173 -4.19736 -9.50957 -25.8337 -21.1434 2.56373 -5.78443 -37.8664 -7.89921 -41.9537 -1.97274 22.9402 -57.6339 9.32627 8.86243 -8.71471 26.6545 4.2633 8.79153 66.4007 -37.3513 59.4754 14.9873 7.47243 35.6237 -30.6091 11.8572 -12.9945 -1.13596 -51.396 -7.84444 0.763948 58.6803 2.41669 -7.16336 10.8373 1.07118 -1.40479e-009 8.75242e-006 -1.47264e-008 
-14.9575 78.4389 58.9062 3.85765 18.5113 174.449 -11.0574 -4.45515 -14.7977 -175.688 84.352 172.121 32.9795 -38.9944 9.54095 0.0462048 0.000530889 0.662642 16.2342 28.9883 -1.2252 5.94653 9.14547 0.903815 -4.1243 -12.0947 -24.6812 -20.9362 2.52826 -5.7213 -38.9126 -10.0404 -41.8651 -2.06615 22.9374 -60.212 9.74374 8.81443 -8.67263 26.541 4.2263 8.72043 60.7465 -35.1702 55.0805 12.9852 11.3436 38.8204 -34.5225 12.1871 -13.1595 -0.831192 -48.9196 -8.26472 0.68085 52.2549 2.79261 -8.19081 10.1255 1.19005 -1.40479e-009 8.75242e-006 -1.47264e-008 
-14.0537 81.0206 61.2173 3.41399 17.7245 176.52 -9.96187 -4.23024 -18.4041 -139.964 89.2478 134.707 30.1444 -40.0007 8.95832 0.0462048 0.000530889 0.662642 16.0099 27.7248 -1.20553 4.74203 9.3562 1.02755 -3.63384 -13.8564 -23.6495 -20.688 2.4865 -5.64697 -39.9995 -12.2497 -41.5598 -3.2821 22.4663 -62.4254 10.4243 8.74131 -8.54956 26.4601 4.20312 8.67909 55.9019 -32.4914 50.7637 11.1127 14.6508 42.909 -37.729 12.8262 -14.4063 -0.307875 -45.9507 -7.75634 0.574986 45.3139 2.82919 -8.34573 6.20208 0.957535 -1.40479e-009 8.75242e-006 -1.47264e-008 
-13.1403 83.7416 63.3448 2.86514 16.8542 178.541 -8.83989 -3.32562 -21.7347 -5.2678 84.2589 -1.02069 27.2261 -41.2938 8.38079 0.0462048 0.000530889 0.662642 15.5098 26.3181 -1.14902 3.57235 9.07455 1.10128 -2.94907 -14.4424 -22.7942 -20.5429 2.4374 -5.51203 -40.8113 -14.218 -40.9655 -5.32748 21.7934 -64.4701 10.919 8.70442 -8.28099 26.4434 4.19088 8.64789 52.2622 -29.7681 46.8283 8.47533 17.9874 47.82 -38.3276 13.5164 -16.3491 0.649979 -42.4767 -5.91655 0.542765 38.0455 3.69278 -7.98841 0.23885 0.535581 -1.40479e-009 8.75242e-006 -1.47264e-008 
-12.303 86.2603 65.1097 2.36401 15.9311 -179.88 -7.8104 -2.1703 -24.611 -2.51215 77.715 -4.10433 24.2913 -42.3214 7.66455 0.0462048 0.000530889 0.662642 14.7552 24.6483 -0.840866 2.59776 8.37932 1.28832 -2.21497 -14.2127 -22.0595 -20.621 2.39077 -5.31649 -41.1599 -15.9298 -40.0906 -7.78908 21.1982 -66.7384 10.8416 8.74682 -7.8957 26.4008 4.17258 8.60747 49.5879 -27.0786 43.5112 5.67489 20.6129 53.0505 -37.1941 13.636 -17.0735 2.1469 -39.1977 -2.24056 0.581417 31.3787 5.01098 -7.6316 -3.58598 0.277861 -1.40479e-009 8.75242e-006 -1.47264e-008 
